<!-- The hero name plate's timber frame (day): a 96px nine-slice for border-image, 16px mitred boards, drawn, not photographed. -->
<svg xmlns="http://www.w3.org/2000/svg" width="96" height="96" viewBox="0 0 96 96"><defs><clipPath id="ct"><polygon points="0,0 96,0 80,16 16,16"/></clipPath><clipPath id="cb"><polygon points="0,96 96,96 80,80 16,80"/></clipPath><clipPath id="cl"><polygon points="0,0 16,16 16,80 0,96"/></clipPath><clipPath id="cr"><polygon points="96,0 80,16 80,80 96,96"/></clipPath></defs><polygon points="0,0 96,0 80,16 16,16" fill="#6b4a2e"/><g clip-path="url(#ct)" fill="none" stroke="#3f2a19" stroke-opacity=".55" stroke-width=".8"><path d="M0 3.1 C32 3.1 64 3.0 96 3.1"/><path d="M0 5.5 C32 5.4 64 5.7 96 5.5"/><path d="M0 8.6 C32 9.3 64 7.8 96 8.6"/><path d="M0 11.2 C32 10.8 64 11.6 96 11.2"/><path d="M0 14.6 C32 13.9 64 15.2 96 14.6"/></g><polygon points="0,96 96,96 80,80 16,80" fill="#6b4a2e"/><g clip-path="url(#cb)" fill="none" stroke="#3f2a19" stroke-opacity=".55" stroke-width=".8"><path d="M0 93.4 C32 93.7 64 93.1 96 93.4"/><path d="M0 90.9 C32 90.7 64 91.1 96 90.9"/><path d="M0 87.5 C32 87.8 64 87.2 96 87.5"/><path d="M0 84.9 C32 85.4 64 84.3 96 84.9"/><path d="M0 81.0 C32 80.2 64 81.8 96 81.0"/></g><polygon points="0,0 16,16 16,80 0,96" fill="#6b4a2e"/><g clip-path="url(#cl)" fill="none" stroke="#3f2a19" stroke-opacity=".55" stroke-width=".8"><path d="M2.2 0 C2.0 32 2.4 64 2.2 96"/><path d="M5.2 0 C5.8 32 4.6 64 5.2 96"/><path d="M8.9 0 C8.2 32 9.7 64 8.9 96"/><path d="M12.1 0 C11.4 32 12.8 64 12.1 96"/><path d="M14.3 0 C14.5 32 14.0 64 14.3 96"/></g><polygon points="96,0 80,16 80,80 96,96" fill="#6b4a2e"/><g clip-path="url(#cr)" fill="none" stroke="#3f2a19" stroke-opacity=".55" stroke-width=".8"><path d="M93.3 0 C93.3 32 93.4 64 93.3 96"/><path d="M90.4 0 C91.2 32 89.7 64 90.4 96"/><path d="M87.3 0 C86.6 32 88.1 64 87.3 96"/><path d="M84.5 0 C84.7 32 84.3 64 84.5 96"/><path d="M81.2 0 C81.0 32 81.4 64 81.2 96"/></g><g stroke="#3f2a19" stroke-width="1.3"><path d="M0 0L16 16M96 0L80 16M0 96L16 80M96 96L80 80"/></g><rect x=".5" y=".5" width="95" height="95" fill="none" stroke="#a8835c" stroke-opacity=".45"/><rect x="15.25" y="15.25" width="65.5" height="65.5" fill="none" stroke="#3f2a19" stroke-width="1.5"/><circle cx="8" cy="5" r="1.7" fill="#3f2a19"/><circle cx="7.5" cy="4.5" r=".6" fill="#a8835c" fill-opacity=".7"/><circle cx="88" cy="5" r="1.7" fill="#3f2a19"/><circle cx="87.5" cy="4.5" r=".6" fill="#a8835c" fill-opacity=".7"/><circle cx="8" cy="91" r="1.7" fill="#3f2a19"/><circle cx="7.5" cy="90.5" r=".6" fill="#a8835c" fill-opacity=".7"/><circle cx="88" cy="91" r="1.7" fill="#3f2a19"/><circle cx="87.5" cy="90.5" r=".6" fill="#a8835c" fill-opacity=".7"/></svg>
